HIERARCHY
ROOT Hips
{
  OFFSET -31.5692 30.0904 122.763
  CHANNELS 6 Xposition Yposition Zposition Zrotation Xrotation Yrotation
  JOINT LeftUpLeg
  {
    OFFSET 8.64259 1.95398 -2.38835
    CHANNELS 3 Zrotation Xrotation Yrotation
    JOINT LeftLeg
    {
      OFFSET 43.7702 0 0
      CHANNELS 3 Zrotation Xrotation Yrotation
      JOINT LeftFoot
      {
        OFFSET 40.6238 0 0
        CHANNELS 3 Zrotation Xrotation Yrotation
        JOINT LeftToeBase
        {
          OFFSET 12.7242 0 0
          CHANNELS 3 Zrotation Xrotation Yrotation
          End Site
          {
            OFFSET 0 0 0
          }
        }
      }
    }
  }
  JOINT RightUpLeg
  {
    OFFSET -8.2249 1.95398 -2.59336
    CHANNELS 3 Zrotation Xrotation Yrotation
    JOINT RightLeg
    {
      OFFSET 43.5653 0 0
      CHANNELS 3 Zrotation Xrotation Yrotation
      JOINT RightFoot
      {
        OFFSET 40.6238 0 0
        CHANNELS 3 Zrotation Xrotation Yrotation
        JOINT RightToeBase
        {
          OFFSET 12.7242 0 0
          CHANNELS 3 Zrotation Xrotation Yrotation
          End Site
          {
            OFFSET 0 0 0
          }
        }
      }
    }
  }
  JOINT Spine
  {
    OFFSET 0.165834 0.87714 6.61349
    CHANNELS 3 Zrotation Xrotation Yrotation
    JOINT Spine1
    {
      OFFSET 7.38963 1.71661e-005 0
      CHANNELS 3 Zrotation Xrotation Yrotation
      JOINT Spine2
      {
        OFFSET 11.9445 1.14441e-005 0
        CHANNELS 3 Zrotation Xrotation Yrotation
        JOINT Spine3
        {
          OFFSET 14.7254 4.19617e-005 0
          CHANNELS 3 Zrotation Xrotation Yrotation
          JOINT Spine4
          {
            OFFSET 10.9679 0 0
            CHANNELS 3 Zrotation Xrotation Yrotation
            JOINT RightShoulder
            {
              OFFSET 2.46616 -1.6653 3.69651
              CHANNELS 3 Zrotation Xrotation Yrotation
              JOINT RightArm
              {
                OFFSET 13.0012 0 0
                CHANNELS 3 Zrotation Xrotation Yrotation
                JOINT RightForeArm
                {
                  OFFSET 28.7848 1.62311e-005 0
                  CHANNELS 3 Zrotation Xrotation Yrotation
                  JOINT RightHand
                  {
                    OFFSET 26.5688 1.62095e-005 0
                    CHANNELS 3 Zrotation Xrotation Yrotation
                    End Site
                    {
                      OFFSET 0 0 0
                    }
                  }
                }
              }
            }
            JOINT LeftShoulder
            {
              OFFSET 2.38034 -1.29275 -3.7523
              CHANNELS 3 Zrotation Xrotation Yrotation
              JOINT LeftArm
              {
                OFFSET 16.3182 6.07031e-005 0
                CHANNELS 3 Zrotation Xrotation Yrotation
                JOINT LeftForeArm
                {
                  OFFSET 27.0901 0 0
                  CHANNELS 3 Zrotation Xrotation Yrotation
                  JOINT LeftHand
                  {
                    OFFSET 24.5451 1.51738e-005 0
                    CHANNELS 3 Zrotation Xrotation Yrotation
                    End Site
                    {
                      OFFSET 0 0 0
                    }
                  }
                }
              }
            }
            JOINT Neck
            {
              OFFSET 5.0226 -0.0266342 0
              CHANNELS 3 Zrotation Xrotation Yrotation
              JOINT Head
              {
                OFFSET 6.69364 2.86102e-005 0
                CHANNELS 3 Zrotation Xrotation Yrotation
                End Site
                {
                  OFFSET 0 0 0
                }
              }
            }
          }
        }
      }
    }
  }
}
MOTION
Frames:	12
Frame Time:	0.0416667
37.1716 102.113 -347.415 151.019 -67.6679 145.463 -163.256 -21.8052 99.1566 -5.93654 31.082 -4.20419 71.2642 8.36602 0.8714 19.2275 -8.37345 8.12114 167.116 -28.6762 85.3664 -2.96989 -0.14869 -0.668488 70.743 -4.94153 0.339644 25.3186 0.661066 4.06536 -2.44025 7.36387 -87.1469 12.2096 -3.50001 6.0839 0.528432 -3.22939 6.23136 -21.968 -5.16476 4.75443 -1.95536 -5.16474 4.75442 68.971 -43.8516 -135.282 43.0124 3.3245 10.9493 -1.09588 -38.7882 -15.6201 -20.3431 -0.0170912 -14.2338 -80.7126 -10.0208 88.7166 -56.5357 -5.62491 19.9807 3.87654 31.3813 -5.66354 7.72436 -1.06777 -22.9266 -16.3638 7.28226 -32.5545 -4.11976 7.16304 18.627 
36.4379 102.213 -347.677 152.274 -69.8038 146.373 -165.312 -21.6361 96.8408 -4.3491 27.4 -2.99261 70.3352 7.68144 0.312817 20.4218 -7.751 8.32797 166.9 -26.0585 84.9322 -4.12667 -2.25509 -0.420327 70.7705 -5.15495 -0.0464441 25.3582 0.698663 3.83182 -2.35407 7.3058 -87.369 12.3228 -3.43046 5.64008 0.643516 -3.17933 5.78503 -21.8636 -4.96545 4.35114 -1.85097 -4.96544 4.35114 71.1502 -42.2912 -132.99 43.7566 0.151423 9.51258 1.83939 -34.9572 -14.9953 -22.3224 -0.0424868 -12.2325 -80.3021 -12.8019 90.2633 -55.3373 -4.04268 18.2029 3.63241 30.6304 -6.04469 5.26406 -0.504476 -22.6134 -14.9962 6.99742 -29.9337 -3.75905 7.29304 17.2782 
35.4706 102.329 -348.292 154.534 -73.2426 148.479 -167.824 -18.7331 94.1918 -5.65535 22.9128 -1.85255 70.3389 7.67202 0.258402 21.9421 -7.12748 8.9819 167.228 -21.7421 85.0121 -6.06044 -5.24164 -0.232594 70.8032 -5.50129 -1.00254 25.2499 0.716375 3.95462 -2.27451 7.20077 -87.7296 12.5296 -3.43788 4.93364 0.853268 -3.2177 5.07978 -21.6719 -4.76072 3.67386 -1.65923 -4.76072 3.67386 73.6914 -39.1717 -130.948 44.5453 -4.52272 7.03039 5.68458 -34.5588 -14.0296 -25.9232 -0.115269 -10.8225 -79.2669 -17.6452 93.4134 -52.5036 -2.1905 15.7308 2.89891 28.9496 -6.05405 5.90582 -0.732842 -22.9501 -12.6499 7.0106 -24.5838 -3.99041 7.73957 14.5008 
34.4 102.342 -349.016 162.291 -76.1485 156.157 -170.082 -16.6474 91.9963 -6.84793 17.5077 -0.486196 70.3217 7.61696 -0.305872 22.6732 -7.75073 11.3894 167.129 -17.3084 84.7664 -9.76127 -8.78733 0.190695 72.0303 -6.31184 -1.46442 24.6274 0.892311 4.33679 -2.02605 7.25332 -88.1764 12.4129 -3.15931 4.00313 0.739169 -2.98021 4.13809 -21.798 -4.21583 2.86909 -1.78538 -4.21583 2.8691 76.8737 -35.0676 -128.241 45.2701 -5.26459 5.92455 4.38816 -34.5032 -16.0127 -25.762 -0.31438 -9.75775 -77.9774 -23.964 96.6164 -48.5363 -0.253313 12.5775 2.26184 26.3412 -6.12886 4.22569 -0.546 -24.267 -8.79815 6.1311 -18.7498 -6.00797 7.06495 12.7969 
33.1866 101.97 -349.845 170.118 -77.1554 164.096 -172.062 -15.1688 90.6433 -8.67823 12.6536 1.13356 70.3636 8.90301 -0.621099 24.643 -7.22335 13.0736 166.686 -13.7617 84.5142 -14.6608 -11.2719 1.01739 74.2883 -7.54741 -1.21391 24.2309 0.754328 5.59621 -1.84832 7.5547 -88.6544 11.8004 -3.0434 3.00545 0.129266 -2.90825 3.13641 -22.4207 -3.80571 1.95159 -2.40804 -3.80571 1.95159 79.9683 -30.677 -125.521 44.9051 -6.32953 2.83743 4.92605 -32.8419 -15.3611 -26.2793 -0.2545 -9.63668 -76.2348 -31.2121 100.075 -43.506 1.34877 9.00482 1.96734 25.4191 -6.4225 3.96341 -0.606639 -25.3997 -4.56271 6.03178 -11.5041 -6.36893 6.92731 9.70493 
32.117 101.568 -350.98 171.622 -77.4503 167.039 -174.74 -5.77461 91.04 -24.3634 5.89237 2.68941 72.9055 9.23817 -4.53144 24.241 -7.13516 12.22 167.049 -12.0357 86.0759 -16.8638 -10.9283 2.17454 75.3406 -8.12803 -0.515017 23.5121 0.71245 6.95674 -1.6534 7.92512 -89.363 11.0441 -2.99599 1.55607 -0.62451 -2.92461 1.68647 -23.1857 -3.325 0.582902 -3.17304 -3.32499 0.582903 83.3036 -25.1739 -122.614 44.562 -8.96897 -0.725457 6.96832 -31.5392 -14.0971 -26.3117 0.112045 -11.2247 -74.6409 -40.302 102.5 -37.2402 3.39773 5.83907 1.78449 21.3286 -7.79687 6.42675 -1.2203 -24.6911 -0.639755 6.04358 -2.49275 -7.27461 6.1578 5.5598 
31.5276 102.419 -351.668 174.061 -78.2344 169.168 -178.793 5.36256 87.5763 -39.7466 -8.62919 5.69077 74.805 1.99133 -26.7787 14.5498 -13.2099 11.7381 167.425 -13.1268 86.5435 -12.1693 -9.92356 1.95405 72.7929 -7.6633 0.626453 24.3132 0.0108077 8.54477 -1.29106 8.18973 -89.8339 10.5012 -2.49532 0.55313 -1.16749 -2.46856 0.662483 -23.7219 -2.54613 -0.222883 -3.70923 -2.54613 -0.222893 85.6739 -20.5914 -120.655 44.8673 -8.25362 -2.19201 5.07006 -29.4126 -15.647 -24.2988 0.0962898 -11.1016 -73.4919 -48.0845 103.808 -32.6177 4.98173 3.05449 1.07674 18.2487 -8.22823 7.19653 -1.29494 -23.0632 1.10542 5.86019 4.33908 -7.53482 5.09851 1.85371 
31.3471 102.062 -351.879 -171.661 -79.463 -177.916 -178.278 10.5754 84.1316 -36.0392 -2.42223 2.27383 71.5622 3.87699 -14.764 19.735 -9.29817 10.6205 167.809 -8.28836 85.3245 -18.609 -12.9733 0.842403 74.7008 -8.17095 -0.0398843 24.5815 0.33555 6.7471 -0.730528 8.341 -90.1871 10.1912 -1.54097 -0.240875 -1.47883 -1.55007 -0.172803 -24.0203 -1.39732 -0.692944 -4.00765 -1.39732 -0.692943 88.028 -14.4953 -119.514 46.5057 -8.24009 -4.57759 4.8399 -27.0328 -14.8713 -24.3484 0.163143 -10.9085 -72.47 -55.7068 104.736 -28.4275 5.6159 1.78011 0.130615 16.191 -7.66724 7.20963 -1.34867 -23.1429 1.75977 5.89332 13.0973 -7.1879 3.88366 -3.05043 
31.1821 101.477 -350.659 -164.417 -79.695 -171.125 -178.48 12.2826 81.075 -23.3282 6.80523 -0.0988161 66.5053 5.25132 -0.533234 20.0631 -7.54906 7.43027 168.136 -7.2169 85.1617 -21.4681 -13.0754 0.25192 76.8195 -8.95432 0.0671784 25.6705 -0.67827 9.33836 0.156914 8.47026 -90.5007 9.93269 0.0853703 -1.00058 -1.73863 0.0412476 -1.00337 -24.2711 0.382118 -0.928669 -4.25841 0.382123 -0.928674 91.6705 -11.8732 -111.866 48.022 -9.97696 -6.93523 4.80079 -27.3603 -15.8935 -25.5758 0.177928 -10.7883 -78.3681 -62.2858 96.4355 -22.8967 7.10331 1.92218 -1.84932 14.9859 -5.97707 5.2647 -0.83349 -21.1813 0.943808 3.29784 18.9947 -6.3819 0.615313 -7.03479 
30.7692 100.978 -347.958 -159.695 -80.3892 -165.672 -179.929 12.9053 80.179 -10.4839 7.5387 -0.363143 63.7825 4.64566 0.0479809 20.0991 -7.29864 6.9333 168.76 -8.81996 86.1838 -20.5531 -12.724 -0.000467784 77.8548 -9.43371 0.302536 26.5773 -0.830468 8.46315 1.07199 8.43521 -90.3644 10.0124 1.97068 -0.885741 -1.65746 1.92978 -0.971648 -24.2041 2.14574 -0.252296 -4.19147 2.14574 -0.252306 93.1611 -18.2446 -104.624 44.8257 -10.0979 -8.63072 4.54165 -27.6665 -16.8648 -24.9356 0.458374 -12.5054 -86.2752 -59.561 85.6521 -23.2248 6.22384 2.76556 -1.63228 16.478 -3.4405 4.05713 -0.503215 -20.2258 -1.11664 -0.340621 13.9193 -4.74264 -2.084 -5.73871 
30.1681 100.147 -344.339 -141.39 -79.9858 -146.356 -179.711 15.8418 80.7436 -7.88955 6.59653 -0.931006 63.2281 4.096 0.737787 19.292 -7.62449 6.62157 169.719 -10.2768 87.0835 -20.9714 -14.138 -0.859352 79.5606 -10.5843 0.652892 27.4942 -0.770186 6.51948 1.71362 8.40929 -90.1533 10.0666 3.3451 -0.582816 -1.60017 3.31621 -0.729647 -24.17 3.36542 0.450647 -4.1574 3.36543 0.450647 93.3163 -24.4462 -101.876 41.0457 -9.68304 -11.4468 4.20284 -26.5407 -17.6176 -24.468 0.386782 -12.0078 -88.7446 -57.1784 81.9058 -23.0384 6.39974 2.84347 -3.12864 17.08 -0.247967 3.44536 -0.342924 -19.7923 -0.879273 -1.60307 10.1319 -3.89036 -2.91001 -4.95844 
29.5564 98.8588 -338.452 -132.255 -79.7343 -135.886 -178.8 16.8435 81.0336 -11.2239 5.54686 -1.31815 62.6187 3.31843 0.0462901 19.4161 -7.30334 6.08709 169.397 -15.0606 87.4181 -17.7678 -15.4295 -0.751224 80.8057 -12.1034 0.236258 30.4814 -1.56067 4.1478 1.58924 8.26745 -90.0494 10.3467 3.14361 -0.370744 -1.32058 3.12425 -0.508875 -23.8856 3.10955 0.59212 -3.87294 3.10955 0.592118 90.479 -27.8063 -106.627 38.5419 -9.26267 -12.6589 4.6972 -24.8123 -17.0272 -22.2711 0.562217 -13.3289 -87.0359 -55.7314 84.0682 -25.5995 1.30527 4.35416 0.768358 19.015 0.0964533 1.77505 -0.0663818 -21.726 -0.719829 -0.644748 8.10712 -3.15219 -1.73249 -3.52991 
